<?xml version='1.0' encoding='iso-8859-1'?>
<svg version="1.1" xmlns="http://www.w3.org/2000/svg" viewBox="0 0 463.002 463.002" xmlns:xlink="http://www.w3.org/1999/xlink" enable-background="new 0 0 463.002 463.002">
  <g>
    <g>
      <path d="m112.001,287.5c0,65.893 53.607,119.5 119.5,119.5s119.5-53.607 119.5-119.5-53.607-119.5-119.5-119.5-119.5,53.607-119.5,119.5zm223.73-7.489c-0.077-0.002-0.152-0.011-0.229-0.011h-16c-4.142,0-7.5,3.357-7.5,7.5s3.358,7.5 7.5,7.5h16c0.077,0 0.152-0.009 0.229-0.011-3.676,51.661-45.069,93.058-96.729,96.74v-16.229c0-4.143-3.358-7.5-7.5-7.5s-7.5,3.357-7.5,7.5v16.228c-51.656-3.681-93.047-45.073-96.728-96.728h16.227c4.142,0 7.5-3.357 7.5-7.5s-3.358-7.5-7.5-7.5h-16.228c3.681-51.656 45.072-93.047 96.728-96.728v16.228c0,4.143 3.358,7.5 7.5,7.5s7.5-3.357 7.5-7.5v-16.228c51.66,3.681 93.054,45.078 96.73,96.739z"/>
      <path d="m241.94,266.454c-3.147-1.567-6.69-2.454-10.439-2.454-10.336,0-19.128,6.71-22.266,16h-9.734c-4.142,0-7.5,3.357-7.5,7.5s3.358,7.5 7.5,7.5h9.734c0.342,1.012 0.749,1.993 1.219,2.939l-13.11,13.11c-2.929,2.93-2.929,7.678 0,10.607 1.464,1.464 3.384,2.196 5.303,2.196s3.839-0.732 5.303-2.196l13.111-13.111c3.147,1.568 6.691,2.454 10.439,2.454 10.336,0 19.128-6.71 22.266-16h33.735c4.142,0 7.5-3.357 7.5-7.5s-3.358-7.5-7.5-7.5h-33.734c-0.342-1.012-0.749-1.994-1.22-2.939l40.258-40.257c2.929-2.93 2.929-7.678 0-10.607-2.929-2.928-7.678-2.928-10.606,0l-40.259,40.258zm-10.439,29.546c-4.687,0-8.5-3.813-8.5-8.5s3.813-8.5 8.5-8.5 8.5,3.813 8.5,8.5-3.812,8.5-8.5,8.5z"/>
      <path d="m403.498,130.142c-2.178-8.127-7.39-14.919-14.677-19.126l-35.074-20.25 4.25-7.361c2.071-3.587 0.842-8.174-2.745-10.245-3.588-2.07-8.175-0.843-10.245,2.745l-4.25,7.361-21.756-12.56v-15.206c0-30.603-24.896-55.5-55.5-55.5h-64c-30.603,0-55.5,24.897-55.5,55.5v15.206l-21.755,12.56-4.25-7.361c-2.071-3.588-6.658-4.815-10.245-2.745-3.587,2.071-4.816,6.658-2.745,10.245l4.25,7.361-35.074,20.25c-7.287,4.207-12.499,10.999-14.677,19.126-2.178,8.128-1.06,16.616 3.147,23.903l12,20.784c2.07,3.586 5.413,6.15 9.412,7.223 1.335,0.357 2.69,0.534 4.037,0.534 2.686,0 5.336-0.704 7.725-2.083l48.931-28.25 4.617,7.997c-41.713,27.015-69.373,73.961-69.373,127.25 0,53.53 27.907,100.665 69.936,127.62l-20.948,36.659c-2.055,3.596-0.806,8.178 2.791,10.232 1.174,0.671 2.453,0.989 3.714,0.989 2.604,0 5.134-1.357 6.519-3.78l20.937-36.64c20.596,10.495 43.894,16.42 68.551,16.42 24.126,0 46.947-5.678 67.213-15.753l22.41,36.201c1.419,2.293 3.873,3.554 6.384,3.554 1.347,0 2.711-0.363 3.94-1.124 3.522-2.181 4.609-6.803 2.429-10.324l-22.068-35.648c42.726-26.819 71.192-74.347 71.192-128.406 0-53.289-27.659-100.235-69.372-127.25l4.617-7.997 48.93,28.25c2.389,1.379 5.039,2.083 7.725,2.083 1.346,0 2.702-0.177 4.037-0.534 3.999-1.072 7.342-3.637 9.412-7.223l12-20.784c4.208-7.287 5.325-15.775 3.148-23.903zm-315.172,37.371c-0.044,0.025-0.177,0.106-0.379,0.05-0.2-0.054-0.278-0.188-0.304-0.233l-12-20.784c-2.204-3.817-2.789-8.264-1.648-12.521s3.871-7.814 7.688-10.019l83.139-48c2.543-1.468 5.365-2.218 8.224-2.218 1.433,0 2.876,0.188 4.297,0.569 4.257,1.141 7.815,3.87 10.019,7.688l12,20.783c0.138,0.239 0.056,0.547-0.183,0.685l-110.853,64zm279.675,119.987c0,75.267-61.234,136.5-136.5,136.5s-136.5-61.233-136.5-136.5 61.234-136.5 136.5-136.5 136.5,61.233 136.5,136.5zm-67.347-134.774c-18.648-9.607-39.534-15.456-61.652-16.539v-41.187h0.5c4.142,0 7.5-3.357 7.5-7.5s-3.358-7.5-7.5-7.5h-16c-4.142,0-7.5,3.357-7.5,7.5s3.358,7.5 7.5,7.5h0.5v41.187c-22.118,1.084-43.004,6.932-61.652,16.539l-4.603-7.973 48.931-28.25c7.401-4.272 9.946-13.771 5.673-21.174l-12-20.784c-4.207-7.287-11-12.499-19.127-14.677-7.51-2.012-15.328-1.205-22.222,2.249v-6.617c0-22.332 18.168-40.5 40.5-40.5h64c22.332,0 40.5,18.168 40.5,40.5v6.618c-6.894-3.454-14.712-4.263-22.222-2.249-8.127,2.178-14.92,7.39-19.127,14.677l-12,20.785c-4.272,7.402-1.727,16.9 5.674,21.173l48.931,28.25-4.604,7.972zm86.706-6.181l-12,20.784c-0.026,0.045-0.104,0.18-0.304,0.233-0.201,0.058-0.335-0.024-0.379-0.05l-110.852-64c-0.239-0.138-0.321-0.445-0.183-0.684l12-20.784c2.204-3.817 5.762-6.547 10.019-7.688 1.421-0.381 2.863-0.569 4.296-0.569 2.859,0 5.682,0.75 8.224,2.218l83.139,48c3.817,2.204 6.547,5.762 7.688,10.019s0.556,8.704-1.648,12.521z"/>
    </g>
  </g>
</svg>
