<?xml version="1.0" encoding="iso-8859-1"?>
<!-- Generator: Adobe Illustrator 17.1.0, SVG Export Plug-In . SVG Version: 6.00 Build 0)  -->
<!DOCTYPE svg PUBLIC "-//W3C//DTD SVG 1.1//EN" "http://www.w3.org/Graphics/SVG/1.1/DTD/svg11.dtd">
<svg version="1.1" id="Capa_1" xmlns="http://www.w3.org/2000/svg" xmlns:xlink="http://www.w3.org/1999/xlink" x="0px" y="0px"
	 viewBox="0 0 256.877 256.877" style="enable-background:new 0 0 256.877 256.877;" xml:space="preserve">
<path style="fill:#000002;" d="M237.036,174.281c-2.848-2.494-5.537-4.85-6.76-7.049c-0.11-0.202-0.23-0.406-0.367-0.634
	l-0.063-0.104c-4.968-7.95-6.88-28.301-8.027-40.508c-0.172-1.829-0.336-3.582-0.501-5.221c-0.018-0.179-0.04-0.357-0.063-0.539
	l-0.014-0.1c-2.668-18.663-9.302-45.585-25.752-67.853c-11.251-15.226-25.193-25.599-41.504-30.891
	C151.822,9.245,141.19,0,128.439,0c-12.755,0-23.391,9.252-25.548,21.397C86.73,26.69,72.467,37.281,61.389,52.279
	c-16.45,22.263-23.084,49.184-25.752,67.849l-0.014,0.1c-0.023,0.182-0.045,0.36-0.063,0.536c-0.167,1.662-0.333,3.426-0.507,5.272
	c-1.143,12.16-3.055,32.513-8.021,40.458l-0.065,0.105c-0.097,0.161-0.19,0.321-0.33,0.567c-1.258,2.262-3.948,4.62-6.796,7.117
	c-7.519,6.59-23.163,20.304-10.212,44.354c2.651,4.928,7.775,7.988,13.371,7.988h36.074c1.486,16.928,15.732,30.252,33.039,30.252
	c17.307,0,31.552-13.324,33.039-30.252h108.724c5.589,0,10.711-3.059,13.37-7.986C260.196,194.591,244.557,180.877,237.036,174.281z
	 M92.114,241.877c-9.024,0-16.512-6.618-17.918-15.252h35.836C108.626,235.259,101.138,241.877,92.114,241.877z M234.042,211.522
	c-0.035,0.064-0.098,0.103-0.165,0.103H23.002c-0.067,0-0.131-0.038-0.163-0.098c-6.781-12.593-1.674-18.456,6.892-25.965
	c3.685-3.23,7.495-6.571,9.969-11.021l0.103-0.178c6.287-10.133,8.406-27.979,10.186-46.924c0.17-1.813,0.333-3.545,0.497-5.179
	l0.009-0.075c2.43-16.951,8.386-41.27,22.959-60.993c10.322-13.975,23.228-22.98,38.358-26.767l5.679-1.421v-7.058
	c0-6.036,4.911-10.947,10.947-10.947s10.947,4.911,10.947,10.947V33l5.678,1.422c15.131,3.79,28.038,12.796,38.36,26.767
	c14.573,19.728,20.528,44.044,22.958,60.996l0.01,0.081c0.163,1.612,0.324,3.331,0.497,5.173c1.785,18.995,3.911,36.883,10.19,46.93
	l0.052,0.087c2.526,4.545,6.337,7.882,10.022,11.108C235.715,193.072,240.82,198.936,234.042,211.522z"/>
<g>
</g>
<g>
</g>
<g>
</g>
<g>
</g>
<g>
</g>
<g>
</g>
<g>
</g>
<g>
</g>
<g>
</g>
<g>
</g>
<g>
</g>
<g>
</g>
<g>
</g>
<g>
</g>
<g>
</g>
</svg>
