<?xml version="1.0" encoding="iso-8859-1"?>
<!-- Generator: Adobe Illustrator 16.0.0, SVG Export Plug-In . SVG Version: 6.00 Build 0)  -->
<!DOCTYPE svg PUBLIC "-//W3C//DTD SVG 1.1//EN" "http://www.w3.org/Graphics/SVG/1.1/DTD/svg11.dtd">
<svg version="1.1" id="Capa_1" xmlns="http://www.w3.org/2000/svg" xmlns:xlink="http://www.w3.org/1999/xlink" x="0px" y="0px"
	 width="31.519px" height="31.519px" viewBox="0 0 31.519 31.519" style="enable-background:new 0 0 31.519 31.519;"
	 xml:space="preserve">
<g>
	<g>
		<path d="M24.395,21.761c0.252-0.198,0.354-0.534,0.255-0.84s-0.379-0.517-0.699-0.529l-5.545-0.227l-1.907-5.151
			c0.347-0.239,0.591-0.622,0.591-1.077c0-0.269-0.1-0.506-0.235-0.714h5.461c0.788,0,1.428-0.64,1.428-1.428V1.428
			C23.743,0.64,23.103,0,22.315,0H9.203C8.416,0,7.775,0.64,7.775,1.428v10.367c0,0.788,0.64,1.428,1.428,1.428h5.46
			c-0.136,0.208-0.235,0.445-0.235,0.714c0,0.455,0.242,0.839,0.593,1.078l-1.909,5.15l-5.544,0.227
			c-0.321,0.013-0.6,0.224-0.699,0.529c-0.099,0.305,0.002,0.642,0.254,0.84l4.353,3.44l-1.499,5.342
			c-0.087,0.31,0.028,0.64,0.288,0.828c0.26,0.188,0.609,0.195,0.877,0.019l4.618-3.073l4.616,3.073
			c0.268,0.179,0.616,0.171,0.877-0.019c0.26-0.188,0.375-0.521,0.288-0.828l-1.498-5.342L24.395,21.761z M8.979,1.904
			c0-0.387,0.313-0.7,0.7-0.7H21.84c0.387,0,0.7,0.313,0.7,0.7v9.416c0,0.387-0.313,0.7-0.7,0.7H9.678c-0.387,0-0.7-0.313-0.7-0.7
			V1.904z"/>
		<path d="M10.608,9.132c0,0.788,0.64,1.428,1.428,1.428h7.445c0.788,0,1.428-0.64,1.428-1.428V4.091
			c0-0.788-0.64-1.428-1.428-1.428h-7.445c-0.788,0-1.428,0.64-1.428,1.428V9.132z"/>
	</g>
</g>
<g>
</g>
<g>
</g>
<g>
</g>
<g>
</g>
<g>
</g>
<g>
</g>
<g>
</g>
<g>
</g>
<g>
</g>
<g>
</g>
<g>
</g>
<g>
</g>
<g>
</g>
<g>
</g>
<g>
</g>
</svg>
